<?xml version="1.0" encoding="UTF-8"?>
<svg id="Ebene_2" data-name="Ebene 2" xmlns="http://www.w3.org/2000/svg" viewBox="0 0 63.18 63.18">
  <defs>
    <style>
      .cls-1 {
        fill: #fff;
      }

      .cls-2 {
        fill: #1d1e1b;
      }
    </style>
  </defs>
  <g id="Ebene_1-2" data-name="Ebene 1">
    <path class="cls-2" d="M63.18,31.59c0,9.84-4.49,18.61-11.54,24.41-2.22,1.83-4.71,3.36-7.38,4.53-.01,0-.01.01-.02.01-3.87,1.7-8.16,2.64-12.65,2.64C14.14,63.18,0,49.03,0,31.59S14.14,0,31.59,0s31.59,14.15,31.59,31.59Z"/>
    <path class="cls-1" d="M51.64,56c-2.22,1.83-4.71,3.36-7.38,4.53-.01,0-.01.01-.02.01l-8.51-9.33c-1.03.16-3.04.17-4.12.17-10.93,0-19.79-8.86-19.79-19.8S20.68,11.79,31.61,11.79s19.8,8.86,19.8,19.79c0,4.57-1.55,8.78-4.15,12.13l-6.13-6.33c1.03-1.69,1.62-3.67,1.62-5.8,0-6.15-4.98-11.14-11.14-11.14s-11.14,4.99-11.14,11.14,4.99,11.14,11.14,11.14c1.95,0,3.78-.5,5.38-1.38l6.26,6.26,8.39,8.4Z"/>
  </g>
</svg>